<?xml version="1.0" encoding="UTF-8" standalone="no"?>
<!DOCTYPE svg PUBLIC "-//W3C//DTD SVG 1.1//EN"
 "http://www.w3.org/Graphics/SVG/1.1/DTD/svg11.dtd">
<!-- Generated by graphviz version 2.43.0 (0)
 -->
<!-- Title: %3 Pages: 1 -->
<svg width="247pt" height="151pt"
 viewBox="0.00 0.00 247.44 150.87" xmlns="http://www.w3.org/2000/svg" xmlns:xlink="http://www.w3.org/1999/xlink">
<g id="graph0" class="graph" transform="scale(1 1) rotate(0) translate(4 146.87)">
<title>%3</title>
<!-- g_text -->
<g id="node1" class="node">
<title>g_text</title>
<text text-anchor="start" x="32.94" y="-67" font-family="Monospace" font-size="25.00" fill="#333333">📪</text>
<text text-anchor="start" x="64.94" y="-67" font-family="Monospace" font-size="10.00" fill="#333333">  Attach Domain</text>
</g>
<!-- g -->
<g id="node2" class="node">
<title>g</title>
<ellipse fill="#77ff99" stroke="#55dd77" cx="13.44" cy="-72" rx="12.04" ry="12.04"/>
<text text-anchor="start" x="9.94" y="-70.5" font-family="Monospace" font-weight="bold" font-size="10.00">g</text>
</g>
<!-- g&#45;&gt;g_text -->
<!-- h -->
<g id="node4" class="node">
<title>h</title>
<ellipse fill="#eeeef5" stroke="#aaaabb" cx="13.44" cy="-14" rx="12.04" ry="12.04"/>
<text text-anchor="start" x="9.94" y="-12.5" font-family="Monospace" font-weight="bold" font-size="10.00">h</text>
</g>
<!-- g&#45;&gt;h -->
<g id="edge3" class="edge">
<title>g&#45;&gt;h</title>
<path fill="none" stroke="#333333" d="M13.44,-59.94C13.44,-52.34 13.44,-42.09 13.44,-33.29"/>
<polygon fill="#333333" stroke="#333333" points="15.89,-33.04 13.44,-26.04 10.99,-33.04 15.89,-33.04"/>
</g>
<!-- h_text -->
<g id="node3" class="node">
<title>h_text</title>
<text text-anchor="start" x="32.94" y="-9" font-family="Monospace" font-size="25.00" fill="#333333">📣</text>
<text text-anchor="start" x="64.94" y="-9" font-family="Monospace" font-size="10.00" fill="#333333">  Notify Completion</text>
</g>
<!-- person -->
<g id="node5" class="node">
<title>person</title>
<text text-anchor="start" x="164.44" y="-63.5" font-family="Helvetica,sans-Serif" font-size="30.00" fill="#333333">🧑</text>
<path fill="none" stroke="#333333" d="M209.44,-75C209.44,-75 233.44,-75 233.44,-75 236.44,-75 239.44,-78 239.44,-81 239.44,-81 239.44,-87 239.44,-87 239.44,-90 236.44,-93 233.44,-93 233.44,-93 209.44,-93 209.44,-93 206.44,-93 203.44,-90 203.44,-87 203.44,-87 203.44,-81 203.44,-81 203.44,-78 206.44,-75 209.44,-75"/>
<text text-anchor="start" x="205.44" y="-81.6" font-family="Helvetica,sans-Serif" font-style="italic" font-size="10.00" fill="#333333"> </text>
<text text-anchor="start" x="209.44" y="-81.6" font-family="Helvetica,sans-Serif" font-style="italic" font-size="13.00" fill="#333333">Y</text>
<text text-anchor="start" x="218.44" y="-81.6" font-family="Helvetica,sans-Serif" font-style="italic" font-size="11.00" fill="#333333">AY </text>
<text text-anchor="start" x="219.44" y="-66" font-family="Helvetica,sans-Serif" font-size="10.00" fill="#333333"> </text>
<text text-anchor="start" x="219.44" y="-53" font-family="Helvetica,sans-Serif" font-size="10.00" fill="#333333"> </text>
</g>
<!-- dotdot -->
<g id="node6" class="node">
<title>dotdot</title>
<ellipse fill="#77ff99" stroke="#55dd77" cx="13.44" cy="-129.44" rx="13.37" ry="13.37"/>
<text text-anchor="start" x="6.94" y="-127.94" font-family="Monospace" font-weight="bold" font-size="10.00">..</text>
</g>
<!-- dotdot&#45;&gt;g -->
<g id="edge2" class="edge">
<title>dotdot&#45;&gt;g</title>
<path fill="none" stroke="#333333" d="M13.44,-115.86C13.44,-108.67 13.44,-99.52 13.44,-91.53"/>
<polygon fill="#333333" stroke="#333333" points="15.89,-91.03 13.44,-84.03 10.99,-91.03 15.89,-91.03"/>
</g>
</g>
</svg>
