<?xml version="1.0" encoding="UTF-8" standalone="no"?>
<!DOCTYPE svg PUBLIC "-//W3C//DTD SVG 1.1//EN"
 "http://www.w3.org/Graphics/SVG/1.1/DTD/svg11.dtd">
<!-- Generated by graphviz version 2.43.0 (0)
 -->
<!-- Title: %3 Pages: 1 -->
<svg width="225pt" height="52pt"
 viewBox="0.00 0.00 224.52 52.00" xmlns="http://www.w3.org/2000/svg" xmlns:xlink="http://www.w3.org/1999/xlink">
<g id="graph0" class="graph" transform="scale(1 1) rotate(0) translate(4 48)">
<title>%3</title>
<!-- a_text -->
<g id="node1" class="node">
<title>a_text</title>
<text text-anchor="middle" x="38.02" y="-19.5" font-family="Monospace" font-size="10.00" fill="#333333">..</text>
</g>
<!-- a -->
<g id="node2" class="node">
<title>a</title>
<ellipse fill="#aaaacc" stroke="#333355" cx="12.02" cy="-22" rx="12.04" ry="12.04"/>
<text text-anchor="start" x="8.52" y="-20.5" font-family="Monospace" font-weight="bold" font-size="10.00">?</text>
</g>
<!-- a&#45;&gt;a_text -->
<!-- person -->
<g id="node3" class="node">
<title>person</title>
<text text-anchor="start" x="53.02" y="-13.5" font-family="Helvetica,sans-Serif" font-size="30.00" fill="#333333">🧑</text>
<path fill="none" stroke="#333333" d="M98.02,-25C98.02,-25 211.02,-25 211.02,-25 214.02,-25 217.02,-28 217.02,-31 217.02,-31 217.02,-37 217.02,-37 217.02,-40 214.02,-43 211.02,-43 211.02,-43 98.02,-43 98.02,-43 95.02,-43 92.02,-40 92.02,-37 92.02,-37 92.02,-31 92.02,-31 92.02,-28 95.02,-25 98.02,-25"/>
<text text-anchor="start" x="94.02" y="-31.6" font-family="Helvetica,sans-Serif" font-style="italic" font-size="10.00" fill="#333333"> </text>
<text text-anchor="start" x="98.02" y="-31.6" font-family="Helvetica,sans-Serif" font-style="italic" font-size="13.00" fill="#333333">M</text>
<text text-anchor="start" x="110.02" y="-31.6" font-family="Helvetica,sans-Serif" font-style="italic" font-size="11.00" fill="#333333">AYBE IT&#39;S FROZEN </text>
<text text-anchor="start" x="152.52" y="-16" font-family="Helvetica,sans-Serif" font-size="10.00" fill="#333333"> </text>
<text text-anchor="start" x="152.52" y="-3" font-family="Helvetica,sans-Serif" font-size="10.00" fill="#333333"> </text>
</g>
</g>
</svg>
